<svg width="237" height="237" viewBox="0 0 237 237" fill="none" xmlns="http://www.w3.org/2000/svg">
<circle cx="118.5" cy="118.5" r="118.5" fill="black"/>
<path d="M52 64H188V166H52V64Z" stroke="white" stroke-width="6"/>
<path d="M67.1545 98.25C64.5878 98.25 62.2711 97.75 60.2045 96.75C58.1378 95.75 56.3545 94.4 54.8545 92.7C53.3545 90.9667 52.1878 89.0333 51.3545 86.9C50.5545 84.7333 50.1545 82.5167 50.1545 80.25C50.1545 77.8833 50.5878 75.6333 51.4545 73.5C52.3211 71.3333 53.5211 69.4167 55.0545 67.75C56.5878 66.05 58.3878 64.7167 60.4545 63.75C62.5545 62.75 64.8211 62.25 67.2545 62.25C69.7878 62.25 72.0878 62.7667 74.1545 63.8C76.2545 64.8333 78.0378 66.2167 79.5045 67.95C81.0045 69.6833 82.1545 71.6167 82.9545 73.75C83.7878 75.8833 84.2045 78.0667 84.2045 80.3C84.2045 82.6667 83.7711 84.9333 82.9045 87.1C82.0711 89.2333 80.8878 91.15 79.3545 92.85C77.8211 94.5167 76.0045 95.8333 73.9045 96.8C71.8378 97.7667 69.5878 98.25 67.1545 98.25ZM55.8545 80.25C55.8545 81.9167 56.1211 83.5333 56.6545 85.1C57.1878 86.6667 57.9378 88.0667 58.9045 89.3C59.9045 90.5 61.1045 91.45 62.5045 92.15C63.9045 92.85 65.4711 93.2 67.2045 93.2C69.0045 93.2 70.6045 92.8333 72.0045 92.1C73.4045 91.3667 74.5711 90.3833 75.5045 89.15C76.4711 87.8833 77.2045 86.4833 77.7045 84.95C78.2045 83.3833 78.4545 81.8167 78.4545 80.25C78.4545 78.5833 78.1878 76.9833 77.6545 75.45C77.1545 73.8833 76.4045 72.5 75.4045 71.3C74.4045 70.0667 73.2045 69.1 71.8045 68.4C70.4378 67.7 68.9045 67.35 67.2045 67.35C65.4045 67.35 63.8045 67.7167 62.4045 68.45C61.0045 69.1833 59.8211 70.1667 58.8545 71.4C57.8878 72.6333 57.1378 74.0167 56.6045 75.55C56.1045 77.0833 55.8545 78.65 55.8545 80.25ZM135.152 62.5V98H129.502V82.35H111.602V98H106.002V62.5H111.602V77.35H129.502V62.5H135.152ZM173.91 98.25C171.344 98.25 169.027 97.75 166.96 96.75C164.894 95.75 163.11 94.4 161.61 92.7C160.11 90.9667 158.944 89.0333 158.11 86.9C157.31 84.7333 156.91 82.5167 156.91 80.25C156.91 77.8833 157.344 75.6333 158.21 73.5C159.077 71.3333 160.277 69.4167 161.81 67.75C163.344 66.05 165.144 64.7167 167.21 63.75C169.31 62.75 171.577 62.25 174.01 62.25C176.544 62.25 178.844 62.7667 180.91 63.8C183.01 64.8333 184.794 66.2167 186.26 67.95C187.76 69.6833 188.91 71.6167 189.71 73.75C190.544 75.8833 190.96 78.0667 190.96 80.3C190.96 82.6667 190.527 84.9333 189.66 87.1C188.827 89.2333 187.644 91.15 186.11 92.85C184.577 94.5167 182.76 95.8333 180.66 96.8C178.594 97.7667 176.344 98.25 173.91 98.25ZM162.61 80.25C162.61 81.9167 162.877 83.5333 163.41 85.1C163.944 86.6667 164.694 88.0667 165.66 89.3C166.66 90.5 167.86 91.45 169.26 92.15C170.66 92.85 172.227 93.2 173.96 93.2C175.76 93.2 177.36 92.8333 178.76 92.1C180.16 91.3667 181.327 90.3833 182.26 89.15C183.227 87.8833 183.96 86.4833 184.46 84.95C184.96 83.3833 185.21 81.8167 185.21 80.25C185.21 78.5833 184.944 76.9833 184.41 75.45C183.91 73.8833 183.16 72.5 182.16 71.3C181.16 70.0667 179.96 69.1 178.56 68.4C177.194 67.7 175.66 67.35 173.96 67.35C172.16 67.35 170.56 67.7167 169.16 68.45C167.76 69.1833 166.577 70.1667 165.61 71.4C164.644 72.6333 163.894 74.0167 163.36 75.55C162.86 77.0833 162.61 78.65 162.61 80.25ZM78.715 102.45H66.915V133H61.265V102.45H49.415V97.5H78.715V102.45ZM113.326 128.05V133H88.9756V97.5H112.876V102.45H94.5756V112.55H110.426V117.2H94.5756V128.05H113.326ZM124.652 133V97.5H149.603V102.4H130.253V112.35H140.652C144.586 112.35 147.536 113.283 149.503 115.15C151.469 116.983 152.453 119.417 152.453 122.45C152.453 124.483 152.019 126.3 151.153 127.9C150.319 129.467 149.053 130.717 147.353 131.65C145.686 132.55 143.569 133 141.003 133H124.652ZM130.253 128.1H140.253C141.786 128.1 143.019 127.817 143.952 127.25C144.919 126.683 145.603 125.967 146.003 125.1C146.436 124.2 146.653 123.267 146.653 122.3C146.653 121.333 146.469 120.433 146.103 119.6C145.736 118.767 145.069 118.1 144.103 117.6C143.169 117.067 141.852 116.8 140.152 116.8H130.253V128.1ZM187.558 128.05V133H163.208V97.5H187.108V102.45H168.808V112.55H184.658V117.2H168.808V128.05H187.558ZM78.5904 132.5V168H72.9404V152.35H55.0404V168H49.4404V132.5H55.0404V147.35H72.9404V132.5H78.5904ZM97.8486 132.5H103.149L116.949 168H111.049L107.299 158.35H93.5986L89.8986 168H83.9486L97.8486 132.5ZM106.199 154.2L100.499 138.65L94.5986 154.2H106.199ZM116.739 174.8V163.05H118.439C119.372 163.05 120.172 162.683 120.839 161.95C121.539 161.217 122.122 160.05 122.589 158.45C123.089 156.85 123.472 154.75 123.739 152.15C124.039 149.517 124.256 146.3 124.389 142.5L124.639 132.5H147.489V163.05H151.989V174.8H147.039V168H121.689V174.8H116.739ZM125.539 163.05H141.839V137.45H129.839L129.689 143.25C129.589 147.083 129.389 150.333 129.089 153C128.789 155.633 128.355 157.767 127.789 159.4C127.222 161.033 126.472 162.25 125.539 163.05ZM173.712 168.25C171.145 168.25 168.829 167.75 166.762 166.75C164.695 165.75 162.912 164.4 161.412 162.7C159.912 160.967 158.745 159.033 157.912 156.9C157.112 154.733 156.712 152.517 156.712 150.25C156.712 147.883 157.145 145.633 158.012 143.5C158.879 141.333 160.079 139.417 161.612 137.75C163.145 136.05 164.945 134.717 167.012 133.75C169.112 132.75 171.379 132.25 173.812 132.25C176.345 132.25 178.645 132.767 180.712 133.8C182.812 134.833 184.595 136.217 186.062 137.95C187.562 139.683 188.712 141.617 189.512 143.75C190.345 145.883 190.762 148.067 190.762 150.3C190.762 152.667 190.329 154.933 189.462 157.1C188.629 159.233 187.445 161.15 185.912 162.85C184.379 164.517 182.562 165.833 180.462 166.8C178.395 167.767 176.145 168.25 173.712 168.25ZM162.412 150.25C162.412 151.917 162.679 153.533 163.212 155.1C163.745 156.667 164.495 158.067 165.462 159.3C166.462 160.5 167.662 161.45 169.062 162.15C170.462 162.85 172.029 163.2 173.762 163.2C175.562 163.2 177.162 162.833 178.562 162.1C179.962 161.367 181.129 160.383 182.062 159.15C183.029 157.883 183.762 156.483 184.262 154.95C184.762 153.383 185.012 151.817 185.012 150.25C185.012 148.583 184.745 146.983 184.212 145.45C183.712 143.883 182.962 142.5 181.962 141.3C180.962 140.067 179.762 139.1 178.362 138.4C176.995 137.7 175.462 137.35 173.762 137.35C171.962 137.35 170.362 137.717 168.962 138.45C167.562 139.183 166.379 140.167 165.412 141.4C164.445 142.633 163.695 144.017 163.162 145.55C162.662 147.083 162.412 148.65 162.412 150.25Z" fill="white"/>
</svg>
